Source.Code.2011.PL.BRRip.XviD-RLF


General:


Complete name                    : rlf-code-pl.avi
Format                           : AVI
Format/Info                      : Audio Video Interleave
File size                        : 703 MiB
Duration                         : 1h 33mn
Overall bit rate                 : 1 056 Kbps
Language                         : Polish
Subs                             : None
Encoder                          : Ralf

Video:


Format                           : MPEG-4 Visual
Format profile                   : Advanced Simple@L5
Format settings, BVOP            : 2
Format settings, QPel            : No
Format settings, GMC             : No warppoints
Format settings, Matrix          : H.263
Muxing mode                      : Packed bitstream
Codec ID                         : XVID
Duration                         : 1h 33mn
Bit rate                         : 919 Kbps
Width                            : 720 pixels
Height                           : 400 pixels
Display aspect ratio             : 16:9
Frame rate                       : 23.976 fps
Color space                      : YUV
Chroma subsampling               : 4:2:0
Bit depth                        : 8 bits
Scan type                        : Progressive
Bits/(Pixel*Frame)               : 0.133
Stream size                      : 612 MiB (87%)

Audio:


Format                           : MPEG Audio
Format profile                   : Layer 3
Codec ID/Hint                    : MP3
Duration                         : 1h 33mn
Bit rate mode                    : Constant
Bit rate                         : 128 Kbps
Channel(s)                       : 2 channels
Sampling rate                    : 48.0 KHz
Stream size                      : 84.9 MiB (12%)
Alignment                        : Split accross interleaves
Interleave, duration             : 42 ms (1.00 video frame)


MOVIE INFO:

Kapitan Colter Stevens (Jake Gyllenhaal) budzi sie w jadacym z duza predkoscia
pociagu. Nie poznaje siedzacej obok niego dziewczyny, nie wie, gdzie jest. Po 8
minutach od jego przebudzenia pociag eksploduje. Wtedy mezczyzna przekonuje się,
ze bierze udzial w rzadowym eksperymencie o nazwie: "Kod niesmiertelnosci", ktory
pozwala na wejscie w cialo innego czlowieka na ostatnich 8 minut jego zycia.
 
http://www.imdb.com/title/tt0945513/ 
http://www.filmweb.pl/film/Kod+nieśmiertelności-2011-418967


SOURCE:

MHD REPACK.720p.BluRay.x264 / Gogeta (THX)


SCREENS:
 
http://www.postimg.com/49000/photo-48987.jpg 
http://www.postimg.com/49000/photo-48988.jpg 
http://www.postimg.com/49000/photo-48989.jpg 
http://www.postimg.com/49000/photo-48990.jpg